# xmcd
#
# Track frame offsets: 
#        150
#        21137
#        38837
#        54675
#        74175
#        92650
#        111775
#        130325
#        149412
#        168475
#        190137
#        210612
#        230250
#        249325
#        269412
#
# Disc length: 3841 seconds
#
# Revision: 7
# Processed by: cddbd v1.5.2PL0 Copyright (c) Steve Scherf et al.
# Submitted via: ExactAudioCopyFreeDBPlugin 1.0
#
DISCID=de0eff0f
DTITLE=彭羚 - 完全因你 彭羚精選
DYEAR=1996
DGENRE=Pop
TTITLE0=隔世情
TTITLE1=完全因你
TTITLE2=小玩意
TTITLE3=如夢初醒
TTITLE4=彷如隔世
TTITLE5=未完的小說
TTITLE6=出色女子
TTITLE7=仍然是最愛你
TTITLE8=喜歡最喜歡你
TTITLE9=有著你……多麼美
TTITLE10=如果得不到愛情
TTITLE11=不許眼兒再下雨
TTITLE12=等得太久
TTITLE13=戀火
TTITLE14=等你到白頭
EXTD=YEAR: 1996
EXTT0=
EXTT1=
EXTT2=
EXTT3=
EXTT4=
EXTT5=
EXTT6=
EXTT7=
EXTT8=
EXTT9=
EXTT10=
EXTT11=
EXTT12=
EXTT13=
EXTT14=
PLAYORDER=
